<mxfile host="app.diagrams.net" modified="2023-11-29T16:48:03.305Z" agent="Mozilla/5.0 (Windows NT 10.0; Win64; x64) AppleWebKit/537.36 (KHTML, like Gecko) Chrome/119.0.0.0 Safari/537.36" etag="4-DaXwbU74qCEG6PYqiy" version="22.1.5" type="device">
  <diagram name="Page-1" id="Bu9k6HaFCyxd65_3UrK_">
    <mxGraphModel dx="1040" dy="651" grid="1" gridSize="10" guides="1" tooltips="1" connect="1" arrows="1" fold="1" page="1" pageScale="1" pageWidth="850" pageHeight="1100" math="0" shadow="0">
      <root>
        <mxCell id="0" />
        <mxCell id="1" parent="0" />
        <mxCell id="NJpK1FpI0BRXqBBfxs1Z-10" value="" style="edgeStyle=orthogonalEdgeStyle;rounded=0;orthogonalLoop=1;jettySize=auto;html=1;" edge="1" parent="1" source="NJpK1FpI0BRXqBBfxs1Z-1" target="NJpK1FpI0BRXqBBfxs1Z-5">
          <mxGeometry relative="1" as="geometry" />
        </mxCell>
        <mxCell id="NJpK1FpI0BRXqBBfxs1Z-1" value="START" style="rounded=1;whiteSpace=wrap;html=1;" vertex="1" parent="1">
          <mxGeometry x="150" y="80" width="120" height="60" as="geometry" />
        </mxCell>
        <mxCell id="NJpK1FpI0BRXqBBfxs1Z-2" value="STOP" style="rounded=1;whiteSpace=wrap;html=1;" vertex="1" parent="1">
          <mxGeometry x="330" y="420" width="120" height="60" as="geometry" />
        </mxCell>
        <mxCell id="NJpK1FpI0BRXqBBfxs1Z-3" value="prompt&amp;nbsp; (input) numbers until given a positive number" style="text;html=1;strokeColor=none;fillColor=none;align=center;verticalAlign=middle;whiteSpace=wrap;rounded=0;" vertex="1" parent="1">
          <mxGeometry x="425" y="40" width="390" height="120" as="geometry" />
        </mxCell>
        <mxCell id="NJpK1FpI0BRXqBBfxs1Z-11" value="" style="edgeStyle=orthogonalEdgeStyle;rounded=0;orthogonalLoop=1;jettySize=auto;html=1;" edge="1" parent="1" source="NJpK1FpI0BRXqBBfxs1Z-5">
          <mxGeometry relative="1" as="geometry">
            <mxPoint x="210" y="260" as="targetPoint" />
          </mxGeometry>
        </mxCell>
        <mxCell id="NJpK1FpI0BRXqBBfxs1Z-5" value="x" style="shape=card;whiteSpace=wrap;html=1;" vertex="1" parent="1">
          <mxGeometry x="170" y="170" width="80" height="50" as="geometry" />
        </mxCell>
        <mxCell id="NJpK1FpI0BRXqBBfxs1Z-12" value="" style="edgeStyle=orthogonalEdgeStyle;rounded=0;orthogonalLoop=1;jettySize=auto;html=1;" edge="1" parent="1" target="NJpK1FpI0BRXqBBfxs1Z-7">
          <mxGeometry relative="1" as="geometry">
            <mxPoint x="210" y="340" as="sourcePoint" />
          </mxGeometry>
        </mxCell>
        <mxCell id="NJpK1FpI0BRXqBBfxs1Z-13" value="YES" style="edgeLabel;html=1;align=center;verticalAlign=middle;resizable=0;points=[];" vertex="1" connectable="0" parent="NJpK1FpI0BRXqBBfxs1Z-12">
          <mxGeometry x="-0.7" y="-3" relative="1" as="geometry">
            <mxPoint as="offset" />
          </mxGeometry>
        </mxCell>
        <mxCell id="NJpK1FpI0BRXqBBfxs1Z-14" value="" style="edgeStyle=orthogonalEdgeStyle;rounded=0;orthogonalLoop=1;jettySize=auto;html=1;" edge="1" parent="1" target="NJpK1FpI0BRXqBBfxs1Z-8">
          <mxGeometry relative="1" as="geometry">
            <mxPoint x="250" y="300" as="sourcePoint" />
          </mxGeometry>
        </mxCell>
        <mxCell id="NJpK1FpI0BRXqBBfxs1Z-15" value="NO" style="edgeLabel;html=1;align=center;verticalAlign=middle;resizable=0;points=[];" vertex="1" connectable="0" parent="NJpK1FpI0BRXqBBfxs1Z-14">
          <mxGeometry x="0.4222" y="-1" relative="1" as="geometry">
            <mxPoint as="offset" />
          </mxGeometry>
        </mxCell>
        <mxCell id="NJpK1FpI0BRXqBBfxs1Z-7" value="x" style="shape=card;whiteSpace=wrap;html=1;" vertex="1" parent="1">
          <mxGeometry x="170" y="390" width="80" height="50" as="geometry" />
        </mxCell>
        <mxCell id="NJpK1FpI0BRXqBBfxs1Z-9" style="edgeStyle=orthogonalEdgeStyle;rounded=0;orthogonalLoop=1;jettySize=auto;html=1;" edge="1" parent="1" source="NJpK1FpI0BRXqBBfxs1Z-8">
          <mxGeometry relative="1" as="geometry">
            <mxPoint x="395" y="410" as="targetPoint" />
          </mxGeometry>
        </mxCell>
        <mxCell id="NJpK1FpI0BRXqBBfxs1Z-8" value="x + &#39;POSITIVE&#39;" style="shape=document;whiteSpace=wrap;html=1;boundedLbl=1;" vertex="1" parent="1">
          <mxGeometry x="340" y="270" width="110" height="60" as="geometry" />
        </mxCell>
        <mxCell id="NJpK1FpI0BRXqBBfxs1Z-16" value="x &amp;lt;= 0&lt;br&gt;?" style="ellipse;whiteSpace=wrap;html=1;aspect=fixed;" vertex="1" parent="1">
          <mxGeometry x="170" y="260" width="80" height="80" as="geometry" />
        </mxCell>
        <mxCell id="NJpK1FpI0BRXqBBfxs1Z-20" value="" style="shape=link;html=1;rounded=0;" edge="1" parent="1">
          <mxGeometry width="100" relative="1" as="geometry">
            <mxPoint x="170" y="480" as="sourcePoint" />
            <mxPoint x="270" y="480" as="targetPoint" />
          </mxGeometry>
        </mxCell>
        <mxCell id="NJpK1FpI0BRXqBBfxs1Z-21" value="" style="endArrow=classic;html=1;rounded=0;exitX=0.5;exitY=1;exitDx=0;exitDy=0;exitPerimeter=0;" edge="1" parent="1" source="NJpK1FpI0BRXqBBfxs1Z-7">
          <mxGeometry width="50" height="50" relative="1" as="geometry">
            <mxPoint x="400" y="360" as="sourcePoint" />
            <mxPoint x="210" y="480" as="targetPoint" />
          </mxGeometry>
        </mxCell>
        <mxCell id="NJpK1FpI0BRXqBBfxs1Z-22" value="Text" style="text;html=1;strokeColor=none;fillColor=none;align=center;verticalAlign=middle;whiteSpace=wrap;rounded=0;" vertex="1" parent="1">
          <mxGeometry x="390" y="320" width="60" height="30" as="geometry" />
        </mxCell>
        <mxCell id="NJpK1FpI0BRXqBBfxs1Z-23" value="x&lt;br&gt;-5&lt;br&gt;-8&lt;br&gt;-9&lt;br&gt;0&lt;br&gt;1&lt;br&gt;" style="text;html=1;align=center;verticalAlign=middle;resizable=0;points=[];autosize=1;strokeColor=none;fillColor=none;" vertex="1" parent="1">
          <mxGeometry x="615" y="163" width="30" height="100" as="geometry" />
        </mxCell>
      </root>
    </mxGraphModel>
  </diagram>
</mxfile>
